<?xml version="1.0" encoding="utf-8"?>
<svg version="1.1" fill="#999" xmlns="http://www.w3.org/2000/svg" xmlns:xlink="http://www.w3.org/1999/xlink" x="0px" y="0px"
	 viewBox="0 0 100 100" style="enable-background:new 0 0 100 100;" xml:space="preserve">
<g>
	<path d="M50,8.3C27.1,8.3,8.3,27.1,8.3,50S27.1,91.7,50,91.7S91.7,72.9,91.7,50S72.9,8.3,50,8.3z M50,100
		C22.5,100,0,77.5,0,50S22.5,0,50,0s50,22.5,50,50S77.5,100,50,100z"/>
	<path d="M66.7,70.8c-1.2,0-2.1-0.4-2.9-1.2L47.1,52.9c-1.7-1.7-1.7-4.2,0-5.8c1.7-1.7,4.2-1.7,5.8,0l16.7,16.7
		c1.7,1.7,1.7,4.2,0,5.8C68.8,70.4,67.9,70.8,66.7,70.8z"/>
	<path d="M50,54.2c-2.5,0-4.2-1.7-4.2-4.2V20.8c0-2.5,1.7-4.2,4.2-4.2s4.2,1.7,4.2,4.2V50C54.2,52.5,52.5,54.2,50,54.2z
		"/>
</g>
</svg>
