<svg version="1.1" xmlns="http://www.w3.org/2000/svg" xmlns:xlink="http://www.w3.org/1999/xlink" x="0px" y="0px"
	 width="200px" height="44px" viewBox="0 0 200 44" style="enable-background:new 0 0 200 44;" xml:space="preserve">
<g>
	<g>
		<path d="M54.3,29.8v-1.2c1.2,0.7,2.1,1.1,2.9,1.1c1.4,0,2.3-0.9,2.3-2.4v0c0-1.4-0.5-2.3-2.4-4.8
			c-2.2-3-2.8-4-2.8-5.5v0c0-2,1.5-3.4,3.3-3.4c1,0,1.7,0.3,2.5,0.7v1.2c-0.9-0.6-1.8-0.9-2.6-0.9c-1.3,0-2.2,1-2.2,2.4v0
			c0,1.2,0.5,2.2,2.4,4.6c2,2.6,2.8,3.9,2.8,5.7v0c0,2.1-1.5,3.5-3.4,3.5C56.2,30.6,55.3,30.3,54.3,29.8z"/>
		<path d="M66.9,14.6h-2.7v-1h6.5v1H68v15.8h-1.1V14.6z"/>
		<path d="M74.2,22.2v-0.4c0-5.5,1.7-8.4,4-8.4s4,2.9,4,8.4v0.4c0,5.5-1.7,8.4-4,8.4S74.2,27.7,74.2,22.2z M81.1,22.2
			v-0.4c0-4.9-1.3-7.4-2.9-7.4s-2.9,2.5-2.9,7.4v0.4c0,4.9,1.3,7.4,2.9,7.4S81.1,27.1,81.1,22.2z"/>
		<path d="M86.7,22.2v-0.4c0-5.5,2.1-8.3,4.5-8.3c0.7,0,1.1,0.1,1.6,0.4V15c-0.6-0.4-1.1-0.5-1.6-0.5
			c-1.9,0-3.4,2.5-3.4,7.3v0.4c0,4.8,1.6,7.3,3.4,7.3c0.6,0,1.1-0.2,1.7-0.6V30c-0.5,0.3-1,0.5-1.8,0.5
			C88.7,30.5,86.7,27.8,86.7,22.2z"/>
		<path d="M97.9,13.6h1.1v9.5l4.7-9.5h1.2l-3.9,7.6l4.3,9.2h-1.2l-3.8-8.1l-1.4,2.7v5.3h-1.1V13.6z"/>
		<path d="M112.2,13.5h1.2l3.7,16.9h-1.1l-1-4.7h-4.4l-1,4.7h-1.1L112.2,13.5z M114.7,24.7l-2-9.6l-2,9.6H114.7z"/>
		<path d="M121.8,13.6h1.2l5.2,14.1V13.6h1v16.8h-1L122.8,16v14.4h-1V13.6z"/>
		<path d="M137.6,13.5h1.2l3.7,16.9h-1.1l-1-4.7H136l-1,4.7H134L137.6,13.5z M140.2,24.7l-2-9.6l-2,9.6H140.2z"/>
		<path d="M147.3,13.6h1.1v15.8h4.2v1h-5.3V13.6z"/>
		<path d="M158.1,23.2l-3.5-9.6h1.2l2.9,8.2l2.9-8.2h1.1l-3.5,9.6v7.2h-1.1V23.2z"/>
		<path d="M168.5,14.6h-2.7v-1h6.5v1h-2.7v15.8h-1.1V14.6z"/>
		<path d="M176.8,13.6h1.1v16.8h-1.1V13.6z"/>
		<path d="M183.1,22.2v-0.4c0-5.5,2.1-8.3,4.5-8.3c0.7,0,1.1,0.1,1.6,0.4V15c-0.6-0.4-1.1-0.5-1.6-0.5
			c-1.9,0-3.4,2.5-3.4,7.3v0.4c0,4.8,1.6,7.3,3.4,7.3c0.6,0,1.1-0.2,1.7-0.6V30c-0.5,0.3-1,0.5-1.8,0.5
			C185,30.5,183.1,27.8,183.1,22.2z"/>
		<path d="M193.7,29.8v-1.2c1.2,0.7,2.1,1.1,2.9,1.1c1.4,0,2.3-0.9,2.3-2.4v0c0-1.4-0.5-2.3-2.4-4.8
			c-2.2-3-2.8-4-2.8-5.5v0c0-2,1.5-3.4,3.3-3.4c1,0,1.7,0.3,2.5,0.7v1.2c-0.9-0.6-1.8-0.9-2.6-0.9c-1.3,0-2.2,1-2.2,2.4v0
			c0,1.2,0.5,2.2,2.4,4.6c2,2.6,2.8,3.9,2.8,5.7v0c0,2.1-1.5,3.5-3.4,3.5C195.6,30.6,194.7,30.3,193.7,29.8z"/>
	</g>
	<g>
		<path d="M44,20.6h-4.2c-0.7-8.8-7.7-15.8-16.4-16.4V0h-2.8v4.2C11.9,4.9,4.9,11.9,4.2,20.6H0v2.8h4.2
			c0.7,8.8,7.7,15.8,16.4,16.4V44h2.8v-4.2c8.8-0.7,15.8-7.7,16.4-16.4H44V20.6 M23.4,37.1v-2.7h-2.8v2.7c-7.2-0.7-13-6.4-13.7-13.7
			h2.7v-2.8H6.9c0.7-7.2,6.4-13,13.7-13.7v2.7h2.8V6.9c7.2,0.7,13,6.4,13.7,13.7l-2.7,0v2.8l2.7,0C36.4,30.6,30.6,36.4,23.4,37.1"/>
		<g>
			<path d="M18.8,29.5V27c1.1,0.6,1.9,1,2.7,1c1,0,1.8-0.6,1.8-1.7v0c0-1-0.3-1.7-1.8-3.5c-2.1-2.5-2.8-3.5-2.8-5.4
				v0c0-2.5,1.7-4.1,3.8-4.1c1.1,0,1.8,0.2,2.6,0.6v2.5c-0.9-0.6-1.6-0.8-2.3-0.8c-1,0-1.7,0.6-1.7,1.7v0c0,0.9,0.3,1.4,1.8,3.3
				c2.2,2.6,2.8,3.8,2.8,5.7v0c0,2.5-1.8,4.1-3.9,4.1C20.7,30.3,19.7,30,18.8,29.5z"/>
		</g>
	</g>
</g>
</svg>
